<?xml version="1.0" encoding="utf-8"?>
<!-- Generator: Adobe Illustrator 16.0.0, SVG Export Plug-In . SVG Version: 6.00 Build 0)  -->
<!DOCTYPE svg PUBLIC "-//W3C//DTD SVG 1.1//EN" "http://www.w3.org/Graphics/SVG/1.1/DTD/svg11.dtd">
<svg version="1.1" id="Layer_1" xmlns="http://www.w3.org/2000/svg" xmlns:xlink="http://www.w3.org/1999/xlink" x="0px" y="0px"
	 width="298px" height="90px" viewBox="0 0 298 90" enable-background="new 0 0 298 90" xml:space="preserve">
<path fill-rule="evenodd" clip-rule="evenodd" fill="#FFFFFF" stroke="#4775BA" stroke-width="5" stroke-miterlimit="10" d="
	M295.5,45.001c0,23.473-19.811,42.499-44.243,42.499H46.746C22.311,87.5,2.5,68.474,2.5,45.001l0,0
	C2.5,21.529,22.311,2.5,46.746,2.5h204.511C275.689,2.5,295.5,21.529,295.5,45.001L295.5,45.001z"/>
<g>
	<path fill-rule="evenodd" clip-rule="evenodd" fill="#4876BA" d="M45,89.999c24.785,0,45-20.215,45-44.999C90,20.215,69.785,0,45,0
		S0,20.215,0,45C0,69.784,20.215,89.999,45,89.999z"/>
	<path fill-rule="evenodd" clip-rule="evenodd" fill="#FFFFFF" d="M46.495,22.547v-2.94c-0.026-1.929,1.667-3.639,3.592-3.639
		c1.83,0,3.056,1.153,3.48,2.697c0.917,3.33,1.842,6.679-2.417,15.549h10.444c0.449,0,0.438,0,2.314,0c2.175,0,3.94,1.764,3.94,3.94
		c0,1.977-1.456,3.614-3.354,3.896c1.873,0.123,3.354,1.681,3.354,3.585c0,1.984-1.609,3.593-3.593,3.593l-0.024-0.002
		c1.264,0.526,2.152,1.772,2.152,3.227c0,1.606-1.085,2.959-2.563,3.367c0.704,0.619,1.15,1.525,1.15,2.537
		c0,1.863-1.512,3.375-3.376,3.375H38.482c-1.19,0-2.165-0.973-2.165-2.164V43.517C36.317,30.861,46.495,26.569,46.495,22.547
		L46.495,22.547z M22.416,65.256h8.297c1.286,0,2.337-1.053,2.337-2.338V41.75c0-1.286-1.051-2.337-2.337-2.337h-8.297
		c-1.286,0-2.337,1.051-2.337,2.337v21.168C20.079,64.203,21.13,65.256,22.416,65.256z"/>
</g>
</svg>
